<svg width="53" height="52" viewBox="0 0 53 52" fill="none" xmlns="http://www.w3.org/2000/svg">
<g id="ant-design:youtube-filled">
<path id="Vector" d="M43.5594 13.6673C43.208 12.8786 42.6558 12.196 41.958 11.688C41.2602 11.18 40.4412 10.8643 39.5832 10.7725C36.4252 10.4373 24.2832 12.3618 24.2832 12.3618C24.2832 12.3618 12.1412 14.2862 9.24058 15.5772C8.4524 15.9292 7.77063 16.4825 7.26375 17.1816C6.75687 17.8807 6.44272 18.7009 6.35285 19.5599C6.02295 22.7239 7.025 29.055 7.025 29.055C7.025 29.055 8.02704 35.3861 9.31712 38.2888C10.0284 39.8919 11.5543 41.0014 13.2934 41.1836C16.4514 41.5188 28.5934 39.5943 28.5934 39.5943C28.5934 39.5943 40.7353 37.6699 43.6353 36.3745C45.2373 35.6628 46.3416 34.1364 46.523 32.3918C46.8536 29.2322 45.8516 22.9011 45.8516 22.9011C45.8516 22.9011 44.8495 16.57 43.5594 13.6673Z" fill="white"/>
<path id="Vector 234" d="M23.0055 29.5332L22.1111 23.6496C21.9173 22.3749 21.8205 21.7376 22.1982 21.4322C22.5759 21.1269 23.1787 21.3553 24.3843 21.8121L29.8997 23.9019C31.115 24.3624 31.7226 24.5926 31.8015 25.0741C31.8805 25.5556 31.3781 25.968 30.3735 26.7928L25.7525 30.5866C24.7322 31.4242 24.2221 31.843 23.7626 31.6668C23.3031 31.4906 23.2039 30.8381 23.0055 29.5332Z" fill="#FF0000"/>
</g>
</svg>
