<svg width="162" height="161" viewBox="0 0 162 161" fill="none" xmlns="http://www.w3.org/2000/svg">
<g id="Instagram" filter="url(#filter0_d_1_1591)">
<rect width="84.569" height="84.6253" rx="42.2845" transform="matrix(0.984787 0.173767 -0.173529 0.984829 33.7342 26.2905)" fill="url(#paint0_radial_1_1591)"/>
<path id="Vector" fill-rule="evenodd" clip-rule="evenodd" d="M71.9507 53.0842C65.9192 52.0199 65.1575 51.9127 62.7696 51.6026C60.3861 51.2937 58.7062 51.3836 57.1975 51.684C55.6366 51.9939 54.2638 52.5346 52.8116 53.5526C51.3586 54.5699 50.3813 55.676 49.5547 57.0369C48.755 58.3531 48.0956 59.9025 47.5724 62.2488C47.0488 64.6007 46.8874 65.3539 45.8239 71.3897C44.7604 77.4254 44.6542 78.1854 44.3438 80.5749C44.0357 82.9602 44.1254 84.6413 44.4251 86.1512C44.7353 87.713 45.2756 89.0869 46.2929 90.54C47.309 91.9941 48.414 92.974 49.7737 93.7991C51.0899 94.5979 52.6382 95.2576 54.983 95.783C57.3329 96.3089 58.0848 96.4687 64.1158 97.5328C70.148 98.5972 70.9071 98.7041 73.295 99.0142C75.6785 99.3231 77.3603 99.2334 78.87 98.9332C80.4303 98.6234 81.8017 98.0804 83.2535 97.0618C84.7066 96.0445 85.684 94.9385 86.5104 93.5775C87.3054 92.2605 87.9649 90.7111 88.4927 88.3656C89.0169 86.0138 89.1776 85.2629 90.2411 79.2272C91.3047 73.1914 91.4106 72.4289 91.7218 70.0396C92.0276 67.6539 91.9374 65.9728 91.6404 64.4632C91.329 62.9013 90.7886 61.5274 89.7708 60.0741C88.7534 58.6199 87.6518 57.6426 86.2896 56.8174C84.9706 56.018 83.422 55.3585 81.0766 54.8329C78.7268 54.307 77.9772 54.1476 71.9437 53.0829L71.9507 53.0842ZM69.2527 56.7376C69.8442 56.841 70.5038 56.9584 71.245 57.0892C77.1747 58.1355 77.8736 58.2808 80.1967 58.8005C82.3446 59.2816 83.4561 59.8511 84.1853 60.2934C85.1507 60.8791 85.8047 61.491 86.4445 62.406C87.0849 63.3211 87.4356 64.1467 87.6562 65.2552C87.8223 66.0912 87.9773 67.3313 87.6939 69.5155C87.3876 71.877 87.2867 72.585 86.2416 78.5161C85.1965 84.4474 85.0494 85.147 84.5301 87.4712C84.0494 89.6206 83.4804 90.7326 83.0385 91.4616C82.4532 92.4277 81.8411 93.0812 80.9267 93.7215C80.0123 94.362 79.1896 94.7134 78.0817 94.9333C77.2458 95.1008 76.0061 95.2545 73.8233 94.9714C71.4632 94.6648 70.7559 94.5639 64.8262 93.5176C58.896 92.4712 58.1971 92.324 55.8749 91.8044C53.7269 91.3222 52.6156 90.7529 51.8858 90.3105C50.9205 89.7247 50.2649 89.1127 49.6247 88.1977C48.9845 87.2826 48.6335 86.4588 48.4128 85.35C48.2468 84.5137 48.0917 83.2739 48.3749 81.0896C48.6813 78.7279 48.784 78.0204 49.8298 72.0855C50.8756 66.1505 51.0202 65.4542 51.5394 63.1301C52.0203 60.9807 52.5893 59.8686 53.0313 59.1389C53.6166 58.1725 54.2292 57.5169 55.1436 56.8762C56.0579 56.2355 56.8832 55.8846 57.9907 55.6637C58.8274 55.4962 60.0666 55.3425 62.2497 55.6251C64.3148 55.894 65.1135 56.0063 69.2537 56.7321L69.2527 56.7376ZM82.4495 62.8713C80.9782 62.6117 79.5742 63.5941 79.3147 65.0669C79.0553 66.5392 80.0386 67.9445 81.5098 68.2041C82.9813 68.4638 84.3856 67.4798 84.645 66.0075C84.9045 64.5352 83.921 63.131 82.4495 62.8713ZM70.0457 63.8954C63.7472 62.7841 57.7402 66.9934 56.6296 73.2964C55.5191 79.5993 59.7255 85.6084 66.024 86.7198C72.3225 87.8312 78.3275 83.6239 79.4381 77.3209C80.5487 71.018 76.3442 65.0068 70.0457 63.8954ZM69.34 67.9005C73.4284 68.6219 76.1587 72.5233 75.4377 76.6151C74.7168 80.7061 70.8177 83.4382 66.7293 82.7168C62.6407 81.9953 59.9108 78.0935 60.6316 74.0025C61.3526 69.9107 65.2514 67.1791 69.34 67.9005Z" fill="white"/>
</g>
<defs>
<filter id="filter0_d_1_1591" x="-6.33889" y="-6.50247" width="174.132" height="174.201" filterUnits="userSpaceOnUse" color-interpolation-filters="sRGB">
<feFlood flood-opacity="0" result="BackgroundImageFix"/>
<feColorMatrix in="SourceAlpha" type="matrix" values="0 0 0 0 0 0 0 0 0 0 0 0 0 0 0 0 0 0 127 0" result="hardAlpha"/>
<feOffset dx="12.6941" dy="5.28919"/>
<feGaussianBlur stdDeviation="19.0411"/>
<feComposite in2="hardAlpha" operator="out"/>
<feColorMatrix type="matrix" values="0 0 0 0 0.890196 0 0 0 0 0.219608 0 0 0 0 0.517647 0 0 0 0.54 0"/>
<feBlend mode="normal" in2="BackgroundImageFix" result="effect1_dropShadow_1_1591"/>
<feBlend mode="normal" in="SourceGraphic" in2="effect1_dropShadow_1_1591" result="shape"/>
</filter>
<radialGradient id="paint0_radial_1_1591" cx="0" cy="0" r="1" gradientUnits="userSpaceOnUse" gradientTransform="translate(17.4818 101.726) rotate(-49.9638) scale(128.09 84.6048)">
<stop offset="0.073" stop-color="#EACC7B"/>
<stop offset="0.184" stop-color="#ECAA59"/>
<stop offset="0.307" stop-color="#EF802E"/>
<stop offset="0.358" stop-color="#EF6D3A"/>
<stop offset="0.46" stop-color="#F04B50"/>
<stop offset="0.516" stop-color="#F03E58"/>
<stop offset="0.689" stop-color="#DB359E"/>
<stop offset="0.724" stop-color="#CE37A4"/>
<stop offset="0.789" stop-color="#AC3CB4"/>
<stop offset="0.877" stop-color="#7544CF"/>
<stop offset="0.98" stop-color="#2B4FF2"/>
</radialGradient>
</defs>
</svg>
