<svg width="162" height="161" viewBox="0 0 162 161" fill="none" xmlns="http://www.w3.org/2000/svg">
<g id="Snapchat" filter="url(#filter0_d_1_1582)">
<rect width="84.5684" height="84.6259" rx="42.2842" transform="matrix(0.990254 0.13927 -0.139077 0.990282 44.775 13.7578)" fill="#F7F400"/>
<g id="Icon">
<path id="Vector" d="M100.499 74.2234C100.012 71.9472 95.2623 70.9706 93.7255 65.6982C93.6382 65.3061 93.6974 65.0533 94.1023 64.8729C95.9839 63.9743 97.2818 63.5159 98.1661 62.2872C98.8119 61.4047 99.0386 60.2971 98.787 59.2173C98.4514 57.722 97.2297 56.6244 95.578 56.3921C94.9965 56.3103 94.5149 56.3613 94.2757 56.3751C94.4363 55.4007 94.5569 54.3731 94.6077 53.3358C94.8055 49.7316 93.8141 47.6694 92.7207 45.9963C92.074 45.027 89.4745 41.4093 83.7055 40.5979C77.9364 39.7865 74.4412 42.5472 73.5526 43.3005C72.0406 44.6071 70.5197 46.316 69.7171 49.8352C69.5034 50.8496 69.3363 51.8706 69.199 52.8483C68.9529 52.7425 68.524 52.5872 67.9425 52.5054C66.3141 52.2764 64.8174 52.968 64.0797 54.336C63.5436 55.2814 63.4532 56.4319 63.8309 57.4583C64.3624 58.9098 65.4638 59.6819 67.025 61.0647C67.3613 61.3731 67.3518 61.6092 67.16 61.962C64.2072 66.603 59.3959 66.235 58.3009 68.2887C57.8212 69.1707 57.9067 70.251 58.6432 71.2566C59.7763 72.8166 62.1832 73.5824 62.6259 73.977C62.9756 74.3585 62.7918 75.3297 63.7972 76.2782C64.5962 77.0078 65.5667 77.1917 66.6102 77.3622C69.6412 77.9072 70.2439 78.5142 71.3057 79.3994C72.6437 80.5134 74.471 82.0285 77.8207 82.4997C81.1705 82.9708 83.3443 82.0184 84.9374 81.3166C86.2018 80.7585 86.9484 80.3413 90.0121 80.6535C91.0654 80.7541 92.0457 80.8683 93.0147 80.3873C94.2657 79.7562 94.3565 78.7719 94.7744 78.4984C95.3087 78.2412 97.8333 78.1689 99.3522 76.982C100.337 76.2184 100.717 75.2036 100.499 74.2234Z" fill="white"/>
<path id="Vector_2" d="M100.499 74.2234C100.012 71.9472 95.2623 70.9706 93.7255 65.6982C93.6382 65.3061 93.6974 65.0533 94.1023 64.8729C95.9839 63.9743 97.2818 63.5159 98.1661 62.2872C98.8119 61.4047 99.0386 60.2971 98.787 59.2173C98.4514 57.722 97.2297 56.6244 95.578 56.3921C94.9965 56.3103 94.5149 56.3613 94.2757 56.3751C94.4363 55.4007 94.5569 54.3731 94.6077 53.3358C94.8055 49.7316 93.8141 47.6694 92.7207 45.9963C92.074 45.027 89.4745 41.4093 83.7055 40.5979C77.9364 39.7865 74.4412 42.5472 73.5526 43.3005C72.0406 44.6071 70.5197 46.316 69.7171 49.8352C69.5034 50.8496 69.3363 51.8706 69.199 52.8483C68.9529 52.7425 68.524 52.5872 67.9425 52.5054C66.3141 52.2764 64.8174 52.968 64.0797 54.336C63.5436 55.2814 63.4532 56.4319 63.8309 57.4583C64.3624 58.9099 65.4638 59.682 67.025 61.0647C67.3613 61.3731 67.3518 61.6092 67.16 61.962C64.2072 66.603 59.3959 66.235 58.3009 68.2887C57.8212 69.1707 57.9067 70.251 58.6432 71.2566C59.7763 72.8166 62.1832 73.5824 62.6259 73.977C62.9756 74.3585 62.7918 75.3297 63.7972 76.2782C64.5962 77.0078 65.5667 77.1917 66.6102 77.3622C69.6412 77.9072 70.2439 78.5142 71.3057 79.3994C72.6437 80.5134 74.471 82.0285 77.8207 82.4997C81.1705 82.9708 83.3443 82.0184 84.9374 81.3166C86.2018 80.7585 86.9484 80.3413 90.0121 80.6535C91.0654 80.7541 92.0457 80.8683 93.0147 80.3873C94.2657 79.7562 94.3565 78.7719 94.7744 78.4984C95.3087 78.2412 97.8333 78.1689 99.3522 76.982C100.337 76.2184 100.717 75.2036 100.499 74.2234ZM97.9294 75.1202C96.9412 75.907 94.8349 75.8719 93.637 76.463C92.3831 77.2837 92.4645 78.0548 91.9801 78.2953C91.6482 78.4622 91.1099 78.4103 90.2659 78.3391C86.9929 77.9974 85.7215 78.4358 84.1783 79.1208C80.5641 80.7015 78.7292 80.2536 78.1477 80.1718C77.5661 80.09 75.679 80.0145 72.6667 77.4781C71.3719 76.394 70.2906 75.6484 67.0302 75.0474C66.196 74.9064 65.6675 74.7846 65.3945 74.5325C64.9951 74.1677 65.2625 73.4457 64.3065 72.3143C63.2945 71.4123 61.2834 70.8683 60.5502 69.8394C60.4302 69.6801 60.3401 69.4775 60.3201 69.451C60.5156 69.2411 61.3719 68.8867 61.9992 68.6426C63.9641 67.827 66.9779 66.6366 69.2024 63.1276C70.0361 61.5831 69.6841 60.2043 68.6056 59.2692C66.1691 57.1936 66.2254 57.1303 66.0349 56.6288C65.9681 56.4374 65.9419 56.2341 65.9581 56.032C65.9742 55.8299 66.0323 55.6334 66.1286 55.455C66.5124 54.7494 67.2899 54.7875 67.5923 54.83C68.0342 54.8922 68.0077 54.9122 71.1235 56.205C71.5347 52.9394 71.6352 51.8853 71.9906 50.3686C72.6748 47.355 73.9475 46.0622 75.0549 45.1023C75.8044 44.4955 78.7094 42.2216 83.3786 42.9258C88.0608 43.5368 90.227 46.5239 90.757 47.3106C91.5571 48.5389 92.4244 50.1326 92.252 53.2181C92.1758 54.7742 91.9822 55.8152 91.478 59.0677C94.8524 58.6876 94.8091 58.6578 95.2511 58.72C95.5768 58.7658 96.3114 58.9403 96.4859 59.7245C96.5932 60.1431 96.511 60.5589 96.2527 60.8786C95.9314 61.3082 95.9714 61.3613 93.0743 62.7342C91.78 63.3356 91.0619 64.564 91.4379 66.2785C92.6096 70.2652 95.1788 72.2408 96.8429 73.5668C97.3754 73.9978 98.1042 74.5513 98.2343 74.807C98.2311 74.8303 98.0653 74.9969 97.9294 75.1202Z" fill="black"/>
</g>
</g>
<defs>
<filter id="filter0_d_1_1582" x="-5.07664" y="-5.28328" width="171.678" height="171.746" filterUnits="userSpaceOnUse" color-interpolation-filters="sRGB">
<feFlood flood-opacity="0" result="BackgroundImageFix"/>
<feColorMatrix in="SourceAlpha" type="matrix" values="0 0 0 0 0 0 0 0 0 0 0 0 0 0 0 0 0 0 127 0" result="hardAlpha"/>
<feOffset dy="19.0411"/>
<feGaussianBlur stdDeviation="19.0411"/>
<feComposite in2="hardAlpha" operator="out"/>
<feColorMatrix type="matrix" values="0 0 0 0 0.870833 0 0 0 0 0.860917 0 0 0 0 0.0544271 0 0 0 0.56 0"/>
<feBlend mode="normal" in2="BackgroundImageFix" result="effect1_dropShadow_1_1582"/>
<feBlend mode="normal" in="SourceGraphic" in2="effect1_dropShadow_1_1582" result="shape"/>
</filter>
</defs>
</svg>
