<svg width="149" height="149" viewBox="0 0 149 149" fill="none" xmlns="http://www.w3.org/2000/svg">
<g id="Tiktok" filter="url(#filter0_d_1_1577)">
<rect width="71.8831" height="71.932" rx="35.9416" transform="matrix(0.990254 0.13927 -0.139077 0.990282 31.0027 14.9998)" fill="black"/>
<path id="tik-tok" d="M77.4133 47.7305C75.6285 47.4776 74.0169 46.5267 72.9319 45.0862C71.8469 43.6458 71.3772 41.8334 71.6258 40.0469C71.6452 39.9105 71.6375 39.7717 71.6032 39.6384C71.5688 39.505 71.5085 39.3797 71.4257 39.2698C71.3429 39.1598 71.2392 39.0672 71.1205 38.9974C71.0019 38.9276 70.8707 38.882 70.7344 38.863L65.1855 38.0826C64.9109 38.044 64.6322 38.1161 64.4107 38.2832C64.1892 38.4502 64.0431 38.6984 64.0045 38.9733L60.8065 61.7441C60.6961 62.5275 60.3561 63.2607 59.8294 63.8508C59.3027 64.4409 58.6129 64.8614 57.8474 65.0593C57.0819 65.2572 56.2749 65.2234 55.5285 64.9624C54.7821 64.7013 54.1298 64.2247 53.6542 63.5927C53.1785 62.9607 52.9007 62.2017 52.856 61.4117C52.8113 60.6218 53.0017 59.8363 53.403 59.1546C53.8044 58.4729 54.3987 57.9256 55.1109 57.5819C55.8231 57.2382 56.6211 57.1135 57.404 57.2237C57.6787 57.2623 57.9574 57.1901 58.1789 57.0231C58.4004 56.8561 58.5465 56.6079 58.5851 56.333L59.365 50.7802C59.385 50.6437 59.3779 50.5046 59.3441 50.3708C59.3102 50.237 59.2502 50.1113 59.1676 50.0008C59.085 49.8903 58.9813 49.7973 58.8626 49.727C58.7439 49.6568 58.6125 49.6108 58.4759 49.5916C56.1855 49.2694 53.851 49.6342 51.7677 50.6398C49.6844 51.6453 47.9459 53.2465 46.772 55.2408C45.5981 57.2352 45.0415 59.5331 45.1726 61.8439C45.3037 64.1548 46.1167 66.3749 47.5087 68.2234C48.9006 70.0719 50.8091 71.4659 52.9928 72.229C55.1764 72.9921 57.5371 73.0901 59.7764 72.5105C62.0157 71.931 64.033 70.7 65.5731 68.9732C67.1133 67.2463 68.1072 65.1013 68.4291 62.8092L69.8437 52.7365C71.7608 54.133 73.993 55.0339 76.3419 55.3592C76.4779 55.3783 76.6163 55.3705 76.7493 55.336C76.8822 55.3016 77.0071 55.2414 77.1168 55.1587C77.2264 55.076 77.3187 54.9724 77.3884 54.854C77.4581 54.7356 77.5039 54.6046 77.523 54.4686L78.3021 48.9209C78.3212 48.7848 78.3133 48.6463 78.279 48.5132C78.2446 48.3802 78.1843 48.2552 78.1017 48.1455C78.0191 48.0357 77.9156 47.9433 77.7973 47.8736C77.679 47.8038 77.5481 47.7581 77.4121 47.739L77.4133 47.7305Z" fill="white"/>
</g>
<defs>
<filter id="filter0_d_1_1577" x="-4.38945" y="-4.04134" width="157.351" height="157.409" filterUnits="userSpaceOnUse" color-interpolation-filters="sRGB">
<feFlood flood-opacity="0" result="BackgroundImageFix"/>
<feColorMatrix in="SourceAlpha" type="matrix" values="0 0 0 0 0 0 0 0 0 0 0 0 0 0 0 0 0 0 127 0" result="hardAlpha"/>
<feOffset dx="12.6941" dy="19.0411"/>
<feGaussianBlur stdDeviation="19.0411"/>
<feComposite in2="hardAlpha" operator="out"/>
<feColorMatrix type="matrix" values="0 0 0 0 0 0 0 0 0 0 0 0 0 0 0 0 0 0 0.28 0"/>
<feBlend mode="normal" in2="BackgroundImageFix" result="effect1_dropShadow_1_1577"/>
<feBlend mode="normal" in="SourceGraphic" in2="effect1_dropShadow_1_1577" result="shape"/>
</filter>
</defs>
</svg>
