<svg width="195" height="196" viewBox="0 0 195 196" fill="none" xmlns="http://www.w3.org/2000/svg">
<g id="Twitter" filter="url(#filter0_d_1_1580)">
<rect width="101.484" height="101.549" rx="50.7422" transform="matrix(0.973597 -0.228273 0.227967 0.973669 15.577 36.615)" fill="#55ACEE"/>
<path id="Vector" fill-rule="evenodd" clip-rule="evenodd" d="M72.9082 65.5621L73.4124 67.2483L71.6356 67.4442C65.1583 68.1158 59.0263 66.681 53.2906 63.2015L50.4785 61.4667L50.2835 63.2804C49.914 67.3074 51.6325 71.0661 54.8454 73.1117C56.5709 74.2538 56.3089 74.5362 53.7203 74.2226C52.8255 74.1378 52.0508 74.0984 52.0062 74.2194C51.8215 74.5205 53.3946 77.5027 54.3455 78.6057C55.6526 80.1405 57.8846 81.4219 60.1259 81.9643L62.0072 82.3703L60.0112 82.8751C58.0759 83.3289 58.015 83.38 58.394 84.0646C59.6164 86.1717 62.9104 87.9405 66.1967 88.2749L68.5105 88.5056L66.9062 90.0603C64.5178 92.3143 61.4819 93.9837 58.25 94.8151C56.7031 95.2146 55.4573 95.6541 55.4818 95.7588C55.5635 96.108 60.2371 97.0744 62.8704 97.2673C70.7621 97.8108 79.2759 94.7833 84.9342 89.3689C88.9536 85.5171 92.3355 78.9423 93.2701 73.1253C93.7829 70.022 93.748 64.5798 93.1677 62.1011C92.7917 60.495 92.8464 60.2612 94.3319 57.8874C95.2105 56.5028 95.9959 55.0299 96.1213 54.6322C96.3115 53.8878 96.277 53.8959 94.6538 54.9026C91.9618 56.6387 91.5144 56.5963 92.5977 54.6848C93.4076 53.3167 94.2121 50.9918 94.0732 50.3985C94.0486 50.2937 93.5711 50.5898 93.0571 51.0418C92.5169 51.5366 91.2572 52.3844 90.2942 52.9417L88.567 53.9728L86.604 53.2176C85.5238 52.808 84.0475 52.4177 83.3071 52.3703C81.4302 52.2948 78.7514 52.9965 77.2926 53.9278C73.3408 56.5115 71.5592 61.2014 72.9082 65.5621Z" fill="white"/>
</g>
<defs>
<filter id="filter0_d_1_1580" x="-9.81116" y="-9.82372" width="215.045" height="215.131" filterUnits="userSpaceOnUse" color-interpolation-filters="sRGB">
<feFlood flood-opacity="0" result="BackgroundImageFix"/>
<feColorMatrix in="SourceAlpha" type="matrix" values="0 0 0 0 0 0 0 0 0 0 0 0 0 0 0 0 0 0 127 0" result="hardAlpha"/>
<feOffset dx="21.1568" dy="23.2725"/>
<feGaussianBlur stdDeviation="23.2725"/>
<feComposite in2="hardAlpha" operator="out"/>
<feColorMatrix type="matrix" values="0 0 0 0 0.333333 0 0 0 0 0.67451 0 0 0 0 0.933333 0 0 0 0.48 0"/>
<feBlend mode="normal" in2="BackgroundImageFix" result="effect1_dropShadow_1_1580"/>
<feBlend mode="normal" in="SourceGraphic" in2="effect1_dropShadow_1_1580" result="shape"/>
</filter>
</defs>
</svg>
