<svg width="24" height="24" viewBox="0 0 24 24" fill="none" xmlns="http://www.w3.org/2000/svg">
<g id="clarity:language-solid" clip-path="url(#clip0_1_109)">
<path id="Vector" d="M7.33073 11L6.66406 13.0667H7.9974L7.33073 11Z" fill="#121212"/>
<path id="Vector_2" d="M20.1979 2H9.53125V5.33333H12.1979V6.66667H3.53125C2.39792 6.66667 1.53125 7.53333 1.53125 8.66667V16C1.53125 17.1333 2.39792 18 3.53125 18H4.19792V21.4L8.39792 18H12.8646V13.3333H20.1979C21.3312 13.3333 22.1979 12.4667 22.1979 11.3333V4C22.1979 2.86667 21.3312 2 20.1979 2ZM8.73125 15.2667L8.39792 14.2H6.33125L5.93125 15.2667H4.33125L6.53125 9.33333H8.13125L10.3312 15.2667H8.73125ZM18.8646 10V11.3333C17.9979 11.3333 17.0646 11.0667 16.2646 10.6667C15.4646 11.0667 14.5312 11.2667 13.5979 11.3333L13.5312 10C13.9979 10 14.4646 9.93333 14.9312 9.8C14.3312 9.2 13.9312 8.46667 13.7312 7.66667H15.1312C15.3312 8.26667 15.7312 8.73333 16.1979 9.13333C16.9312 8.53333 17.3979 7.66667 17.4646 6.66667H13.4646V5.33333H15.4646V4H16.7979V5.33333H18.9979L19.0646 6C19.1312 7.4 18.5979 8.8 17.5979 9.8C18.0646 9.93333 18.4646 10 18.8646 10Z" fill="#121212"/>
</g>
<defs>
<clipPath id="clip0_1_109">
<rect width="24" height="24" fill="white"/>
</clipPath>
</defs>
</svg>
