<svg width="99" height="40" viewBox="0 0 99 40" fill="none" xmlns="http://www.w3.org/2000/svg">
  <g clip-path="url(#clip0_1_124)">
    <path d="M14.5275 6.73451C14.0315 6.45211 13.5379 6.1665 13.0435 5.8825C13.0187 5.8625 12.9947 5.8433 12.9627 5.8249C11.6586 5.08248 10.3602 4.33047 9.05859 3.58325V7.23773C9.4154 7.44173 9.77221 7.64653 10.129 7.85134C10.1554 7.87454 10.185 7.89614 10.221 7.91614C11.5794 8.68815 12.9323 9.47137 14.2883 10.2474C14.6139 10.4338 14.7603 10.3514 14.7627 9.97698C14.7651 9.52337 14.7651 9.06976 14.7651 8.61615V8.11374H14.7659C14.7659 7.79134 14.7659 7.46893 14.7675 7.14732C14.7667 6.95372 14.7019 6.83372 14.5275 6.73451Z" fill="url(#paint0_linear_1_124)"/>
    <path d="M14.7339 31.2952C14.5579 31.3472 14.4235 31.3616 14.3155 31.4232C13.8387 31.6952 13.3627 31.9688 12.8867 32.2424C12.8379 32.2568 12.7915 32.2728 12.7507 32.296C11.5186 32.9984 10.2906 33.7088 9.05859 34.412V38.0625C9.4666 37.8281 9.87381 37.5937 10.281 37.3593C10.3434 37.3417 10.4178 37.3089 10.505 37.2585C11.8298 36.4985 13.1507 35.7321 14.4795 34.98C14.6699 34.872 14.7531 34.7488 14.7635 34.5448V33.4928C14.7627 32.8952 14.7635 32.2968 14.7627 31.6992C14.7627 31.596 14.7491 31.4944 14.7339 31.2952Z" fill="url(#paint1_linear_1_124)"/>
    <path d="M13.1974 25.3978L9.05734 26.5067V26.5131L8.98854 26.5315V26.5299L4.84766 27.6395V30.9507L5.78768 30.6987V30.7011L10.5534 29.4243V29.4195L14.7631 28.2915V24.9802L13.1974 25.3994V25.3978Z" fill="url(#paint2_linear_1_124)"/>
    <path d="M9.9978 19.2268H0V22.4253H9.9978H13.1979H14.7635V19.2268H13.1979H9.9978Z" fill="url(#paint3_linear_1_124)"/>
    <path d="M9.99736 12.0921L9.05734 11.8401V11.8465L5.78768 10.9697V10.9785L4.84766 10.7273V14.0386L8.98854 15.1482V15.1394L10.5534 15.5586V15.5522L13.1974 16.261V16.2522L14.7631 16.6714V13.3601L9.99736 12.0825V12.0921Z" fill="url(#paint4_linear_1_124)"/>
    <path d="M37.9505 20.2162C31.5232 16.5161 25.0942 12.8185 18.6701 9.11279C18.2133 8.84958 18.0445 8.92479 18.0469 9.4768C18.0605 13.2641 18.0541 17.0521 18.0541 20.8394C18.0541 24.6155 18.0541 28.3916 18.0541 32.1676C18.0541 32.2597 18.0485 32.3525 18.0565 32.4437C18.0797 32.7037 18.2205 32.7869 18.4517 32.6789C18.5245 32.6453 18.5925 32.6005 18.6621 32.5605C20.2573 31.6436 21.8518 30.7268 23.447 29.8092C28.2807 27.0275 33.1144 24.2467 37.9465 21.4626C38.5561 21.1114 38.5561 20.565 37.9505 20.2162ZM21.2454 27.4252C21.2454 23.0275 21.2454 18.6674 21.2454 14.2513C25.063 16.4481 28.8527 18.6282 32.6928 20.8378C28.8623 23.0419 25.0718 25.2227 21.2454 27.4252Z" fill="url(#paint5_linear_1_124)"/>
    <path d="M58.0831 28.0662V39.7368H56.2374V38.0352C55.303 39.2816 53.6494 40 51.9238 40C48.6173 40 46.1484 37.34 46.1484 33.8895C46.1484 30.463 48.5925 27.803 51.9238 27.803C53.7446 27.803 55.4222 28.5942 56.3326 29.9358V28.0662H58.0831ZM56.2614 33.8887C56.2614 30.8214 54.2006 29.503 52.1878 29.503C49.7917 29.503 48.0421 31.3959 48.0421 33.9119C48.0421 36.452 49.8149 38.2976 52.1878 38.2976C54.2006 38.2984 56.2614 36.956 56.2614 33.8887Z" fill="black"/>
    <path d="M72.0198 21.7637V39.736H70.2701V37.8912C69.3597 39.2096 67.6821 40 65.8613 40C62.53 40 60.0859 37.34 60.0859 33.9135C60.0859 30.463 62.53 27.803 65.8613 27.803C67.6109 27.803 69.2397 28.5462 70.1749 29.7918V21.7637H72.0198ZM70.1989 33.9127C70.1989 30.8455 68.1381 29.5038 66.1253 29.5038C63.7524 29.5038 61.9796 31.3495 61.9796 33.8895C61.9796 36.4296 63.7292 38.2984 66.1253 38.2984C68.1381 38.2984 70.1989 36.98 70.1989 33.9127Z" fill="black"/>
    <path d="M73.6953 37.7231L74.8697 36.5006C75.8282 37.5071 76.8106 38.2983 78.225 38.2983C79.4466 38.2983 80.4538 37.6991 80.4538 36.6446C80.4538 35.6382 79.5914 35.2542 78.417 34.775L77.2906 34.2958C75.5169 33.5526 74.3913 32.7142 74.3913 31.0605C74.3913 28.9517 76.1882 27.8013 78.321 27.8013C79.9986 27.8013 81.3163 28.5205 82.2267 29.6469L81.1003 30.7973C80.333 30.0069 79.3266 29.5029 78.225 29.5029C77.1226 29.5029 76.2834 30.0061 76.2834 30.9645C76.2834 31.7549 76.8826 32.115 78.1762 32.6654L79.2546 33.1206C81.3395 34.007 82.3459 34.9182 82.3459 36.571C82.3459 38.8479 80.4042 39.9975 78.2482 39.9975C76.1874 39.9999 74.6297 38.9695 73.6953 37.7231Z" fill="black"/>
    <path d="M58.4198 6.73366V18.5955H55.4005V17.2059C54.5621 18.2843 53.2437 18.8835 51.638 18.8835C48.2828 18.8835 45.8867 16.2475 45.8867 12.677C45.8867 9.10651 48.2828 6.47046 51.638 6.47046C53.2917 6.47046 54.6333 7.11767 55.4485 8.22009V6.73366H58.4198ZM55.2325 12.677C55.2325 10.4241 53.7229 9.39372 52.2372 9.39372C50.5596 9.39372 49.17 10.6641 49.17 12.677C49.17 14.6898 50.5596 15.9362 52.2372 15.9362C53.7229 15.9362 55.2325 14.9538 55.2325 12.677Z" fill="black"/>
    <path d="M60.5859 1.85844L63.8212 0V18.5964H60.5859V1.85844Z" fill="black"/>
    <path d="M69.9402 5.08003V6.73367H72.5523V9.46572H69.9402V18.5963H66.705V9.46572H65.0273V6.73367H66.705V4.79283C66.705 1.74957 68.5266 0.335938 71.2819 0.335938C72.0251 0.335938 72.5995 0.45594 73.0555 0.599143V3.3072C72.6963 3.2592 72.4083 3.2352 72.0971 3.2352C70.6595 3.2352 69.9402 3.71441 69.9402 5.08003Z" fill="black"/>
    <path d="M85.1463 6.73366V18.5955H82.1271V17.2059C81.2887 18.2843 79.9702 18.8835 78.3646 18.8835C75.0093 18.8835 72.6133 16.2475 72.6133 12.677C72.6133 9.10651 75.0093 6.47046 78.3646 6.47046C80.0182 6.47046 81.3599 7.11767 82.1751 8.22009V6.73366H85.1463ZM81.9591 12.677C81.9591 10.4241 80.4494 9.39372 78.9638 9.39372C77.2862 9.39372 75.8965 10.6641 75.8965 12.677C75.8965 14.6898 77.2862 15.9362 78.9638 15.9362C80.4494 15.9362 81.9591 14.9538 81.9591 12.677Z" fill="black"/>
    <path d="M98.2167 11.2396V18.5965H95.0055V11.6708C95.0055 10.3052 94.119 9.36996 92.8006 9.36996C91.483 9.36996 90.5478 10.3044 90.5478 11.6708V18.5965H87.3125V6.73391H90.2838V7.81233C91.0982 6.99791 92.2966 6.4707 93.7582 6.4707C96.5399 6.4707 98.2167 8.38754 98.2167 11.2396Z" fill="black"/>
  </g>
  <defs>
    <linearGradient id="paint0_linear_1_124" x1="9.35757" y1="2.34369" x2="24.4754" y2="30.6196" gradientUnits="userSpaceOnUse">
      <stop stop-color="#00B4FF"/>
      <stop offset="1" stop-color="#00F100"/>
    </linearGradient>
    <linearGradient id="paint1_linear_1_124" x1="-2.11218" y1="8.47661" x2="13.0057" y2="36.7526" gradientUnits="userSpaceOnUse">
      <stop stop-color="#00B4FF"/>
      <stop offset="1" stop-color="#00F100"/>
    </linearGradient>
    <linearGradient id="paint2_linear_1_124" x1="-0.947732" y1="7.85296" x2="14.1701" y2="36.1289" gradientUnits="userSpaceOnUse">
      <stop stop-color="#00B4FF"/>
      <stop offset="1" stop-color="#00F100"/>
    </linearGradient>
    <linearGradient id="paint3_linear_1_124" x1="0.136083" y1="7.27403" x2="15.2539" y2="35.55" gradientUnits="userSpaceOnUse">
      <stop stop-color="#00B4FF"/>
      <stop offset="1" stop-color="#00F100"/>
    </linearGradient>
    <linearGradient id="paint4_linear_1_124" x1="4.9841" y1="4.68164" x2="20.1019" y2="32.9576" gradientUnits="userSpaceOnUse">
      <stop stop-color="#00B4FF"/>
      <stop offset="1" stop-color="#00F100"/>
    </linearGradient>
    <linearGradient id="paint5_linear_1_124" x1="13.9391" y1="-0.107243" x2="29.057" y2="28.1687" gradientUnits="userSpaceOnUse">
      <stop stop-color="#00B4FF"/>
      <stop offset="1" stop-color="#00F100"/>
    </linearGradient>
    <clipPath id="clip0_1_124">
      <rect width="98.2132" height="40" fill="white"/>
    </clipPath>
  </defs>
</svg>      
