<svg width="78" height="30" viewBox="0 0 78 30" fill="none" xmlns="http://www.w3.org/2000/svg">
<g id="Group">
<g id="Group_2">
<g id="Group_3">
<path id="Vector" d="M28.3614 15.1913C23.6291 12.4673 18.8956 9.74502 14.1664 7.01677C13.8303 6.82297 13.7061 6.87817 13.7073 7.28497C13.7169 10.0738 13.7127 12.8621 13.7127 15.6509C13.7127 18.4308 13.7127 21.2113 13.7127 23.9911C13.7127 24.0589 13.7085 24.1273 13.7139 24.1945C13.7307 24.3859 13.8345 24.4471 14.005 24.3673C14.0584 24.3421 14.1082 24.3097 14.1598 24.2803C15.334 23.6053 16.5082 22.9303 17.6824 22.2553C21.2411 20.2074 24.7998 18.1596 28.3572 16.11C28.8078 15.8501 28.8079 15.4481 28.3614 15.1913ZM16.0624 20.4984C16.0624 17.2602 16.0624 14.0501 16.0624 10.7992C18.8728 12.4163 21.6635 14.0219 24.4908 15.6485C21.6707 17.2716 18.8794 18.8772 16.0624 20.4984Z" fill="url(#paint0_linear_1_1686)"/>
</g>
<g id="Group_4">
<path id="Vector_2" d="M11.2907 21.8339V5.7476C11.2907 5.56699 11.1953 5.40019 11.0399 5.30899L9.24887 4.25177C9.11026 4.17017 8.93566 4.26977 8.93566 4.43057V18.6509C7.55143 18.1024 5.7562 18.2086 4.05996 19.0721C2.81254 19.7069 1.80992 20.6699 1.2369 21.7829C0.606291 23.0081 0.55829 24.3282 1.1061 25.404C1.79972 26.7666 3.26255 27.5016 4.94138 27.5016C5.9128 27.5016 6.95622 27.2556 7.96424 26.7426C9.21167 26.1078 10.2143 25.1448 10.7873 24.0318C11.0537 23.514 11.2151 22.9793 11.2721 22.4531H11.2901V22.2257C11.2973 22.0943 11.2973 21.9635 11.2907 21.8339ZM8.65185 22.9325C8.31285 23.5914 7.66483 24.1998 6.87462 24.6024C5.40159 25.3518 3.70655 25.218 3.24694 24.315C2.98234 23.7954 3.21214 23.1941 3.37295 22.8827C3.71195 22.2239 4.35997 21.6155 5.15018 21.2129C6.62321 20.4629 8.31825 20.5973 8.77786 21.5003C9.04246 22.0199 8.81266 22.6205 8.65185 22.9325Z" fill="url(#paint1_linear_1_1686)"/>
</g>
</g>
<g id="Group_5">
<g id="Group_6">
<path id="Vector_3" d="M48.174 24.3025V29.8022H46.7904V24.4825C46.7904 23.0989 46.0355 22.128 44.7233 22.128C43.3931 22.128 42.4769 23.1343 42.4769 24.3565V29.8022H41.0926V24.4825C41.0926 23.0989 40.3018 22.128 39.0076 22.128C37.6774 22.128 36.7792 23.0989 36.7792 24.4825V29.8022H35.3949V21.0498H36.6892V21.9666C37.3006 21.2658 38.1988 20.8524 39.295 20.8524C40.6072 20.8524 41.5054 21.4458 41.9909 22.3626C42.6017 21.4818 43.6445 20.8524 44.9921 20.8524C47.0418 20.8518 48.174 22.2714 48.174 24.3025Z" fill="white"/>
<path id="Vector_4" d="M50.059 26.3175V21.0518H51.4252V26.4075C51.4252 27.8451 52.4314 28.7259 53.6897 28.7259C54.9119 28.7259 55.9181 27.8451 55.9181 26.4075V21.0518H57.3017V26.3175C57.3017 28.5645 55.7021 30.0021 53.6891 30.0021C51.6406 30.0021 50.059 28.5639 50.059 26.3175Z" fill="white"/>
<path id="Vector_5" d="M58.3752 28.2938L59.256 27.3769C59.9749 28.1318 60.7117 28.7252 61.7725 28.7252C62.6893 28.7252 63.4441 28.2758 63.4441 27.4849C63.4441 26.7301 62.7973 26.4421 61.9165 26.0827L61.0717 25.7233C59.7421 25.1659 58.8972 24.5371 58.8972 23.2969C58.8972 21.7152 60.2455 20.8524 61.8445 20.8524C63.1027 20.8524 64.0909 21.3918 64.7744 22.2366L63.9295 23.0995C63.3541 22.5066 62.5993 22.1286 61.7731 22.1286C60.9463 22.1286 60.3175 22.506 60.3175 23.2249C60.3175 23.8177 60.7669 24.0877 61.7371 24.5005L62.5459 24.8419C64.1095 25.5067 64.8644 26.1901 64.8644 27.4297C64.8644 29.1374 63.4087 29.9996 61.7911 29.9996C60.2443 30.0014 59.076 29.2286 58.3752 28.2938Z" fill="white"/>
<path id="Vector_6" d="M66.0434 17.7074C66.0434 17.15 66.5108 16.7012 67.0856 16.7012C67.643 16.7012 68.1098 17.1506 68.1098 17.7074C68.1098 18.2828 67.6424 18.7136 67.0856 18.7136C66.5102 18.7142 66.0434 18.2828 66.0434 17.7074ZM66.3848 21.0507H67.769V29.8036H66.3848V21.0507Z" fill="white"/>
<path id="Vector_7" d="M69.1918 25.4174C69.1918 22.865 71.2228 20.8525 73.7747 20.8525C75.3563 20.8525 76.6146 21.6074 77.3874 22.7576L76.3991 23.5484C75.7523 22.6856 74.9255 22.1288 73.7933 22.1288C71.9603 22.1288 70.612 23.5844 70.612 25.418C70.612 27.2691 71.9603 28.7247 73.7933 28.7247C74.9075 28.7247 75.7343 28.1853 76.3812 27.3225L77.3694 28.0953C76.5966 29.2455 75.3383 30.0003 73.7747 30.0003C71.2228 30.0009 69.1918 27.9879 69.1918 25.4174Z" fill="white"/>
</g>
<g id="Group_7">
<path id="Vector_8" d="M43.9705 5.05007V13.9464H41.7061V12.9042C41.0772 13.713 40.0884 14.1624 38.8842 14.1624C36.3677 14.1624 34.5707 12.1854 34.5707 9.50755C34.5707 6.8297 36.3677 4.85266 38.8842 4.85266C40.1244 4.85266 41.1306 5.33807 41.7421 6.16489V5.05007H43.9705ZM41.5801 9.50755C41.5801 7.81792 40.4478 7.0451 39.3336 7.0451C38.0754 7.0451 37.0332 7.99792 37.0332 9.50755C37.0332 11.0172 38.0754 11.952 39.3336 11.952C40.4478 11.952 41.5801 11.2152 41.5801 9.50755Z" fill="white"/>
<path id="Vector_9" d="M45.5947 1.39383L48.0206 0V13.9473H45.5941V1.39383H45.5947Z" fill="white"/>
<path id="Vector_10" d="M52.6109 3.81002V5.05025H54.5699V7.09929H52.6109V13.9472H50.1844V7.09929H48.9262V5.05025H50.1844V3.59462C50.1844 1.31217 51.5506 0.251953 53.6171 0.251953C54.1745 0.251953 54.6053 0.341955 54.9473 0.449357V2.4804C54.6779 2.4444 54.4619 2.4264 54.2285 2.4264C53.1503 2.4264 52.6109 2.7858 52.6109 3.81002Z" fill="white"/>
<path id="Vector_11" d="M64.0135 5.04994V13.9463H61.749V12.9041C61.1202 13.7129 60.1314 14.1623 58.9272 14.1623C56.4107 14.1623 54.6137 12.1853 54.6137 9.50743C54.6137 6.82958 56.4107 4.85254 58.9272 4.85254C60.1674 4.85254 61.1736 5.33795 61.785 6.16477V5.04994H64.0135ZM61.623 9.50743C61.623 7.8178 60.4908 7.04498 59.3766 7.04498C58.1183 7.04498 57.0761 7.9978 57.0761 9.50743C57.0761 11.0171 58.1183 11.9519 59.3766 11.9519C60.4908 11.9519 61.623 11.2151 61.623 9.50743Z" fill="white"/>
<path id="Vector_12" d="M73.8192 8.42921V13.9469H71.4107V8.75262C71.4107 7.7284 70.7459 7.02698 69.7571 7.02698C68.7689 7.02698 68.0675 7.7278 68.0675 8.75262V13.9469H65.641V5.04994H67.8701V5.85876C68.4809 5.24795 69.3797 4.85254 70.4759 4.85254C72.561 4.85254 73.8192 6.29017 73.8192 8.42921Z" fill="white"/>
</g>
</g>
</g>
<defs>
<linearGradient id="paint0_linear_1_1686" x1="12.3583" y1="1.88712" x2="20.8621" y2="19.2096" gradientUnits="userSpaceOnUse">
<stop stop-color="#A400FF"/>
<stop offset="0.9995" stop-color="#FF59F5"/>
</linearGradient>
<linearGradient id="paint1_linear_1_1686" x1="2.00323" y1="6.97107" x2="10.507" y2="24.2936" gradientUnits="userSpaceOnUse">
<stop stop-color="#A400FF"/>
<stop offset="0.9995" stop-color="#FF59F5"/>
</linearGradient>
</defs>
</svg>
