<svg width="95" height="30" viewBox="0 0 95 30" fill="none" xmlns="http://www.w3.org/2000/svg">
<g id="Group">
<g id="Group_2">
<g id="Group_3">
<path id="Vector" d="M40.2035 24.3005V29.8001H38.8199V24.4625C38.8199 23.079 37.9931 22.1262 36.6455 22.1262C35.2979 22.1262 34.3451 23.097 34.3451 24.4625V29.8001H32.9609V21.048H34.2551V21.9828C34.8839 21.282 35.8187 20.8506 36.9509 20.8506C39.0173 20.85 40.2035 22.2696 40.2035 24.3005Z" fill="white"/>
<path id="Vector_2" d="M49.97 25.8467H43.0509C43.2309 27.5897 44.5425 28.7225 46.268 28.7225C47.3642 28.7225 48.227 28.2551 48.9458 27.5363L49.7546 28.4705C48.8738 29.4053 47.6876 29.9981 46.25 29.9981C43.6083 29.9981 41.6133 28.0031 41.6133 25.4333C41.6133 22.8816 43.5723 20.8506 46.0886 20.8506C48.335 20.8506 50.0786 22.4682 50.0786 24.8045C50.078 25.2719 50.006 25.6673 49.97 25.8467ZM43.1049 24.6245H48.6584C48.6404 23.007 47.4362 22.1082 46.0526 22.1082C44.5785 22.1088 43.4103 23.115 43.1049 24.6245Z" fill="white"/>
<path id="Vector_3" d="M56.2943 28.6331V29.8013C55.8449 29.9093 55.3961 29.9993 54.8387 29.9993C53.1131 29.9993 51.8916 29.1545 51.8916 27.1595V22.2888H50.418V21.0486H51.8916V18.6582H53.2751V21.0486H56.0069V22.2888H53.2751V27.0695C53.2751 28.3817 54.0299 28.7411 55.1261 28.7411C55.4675 28.7411 55.8449 28.7051 56.2943 28.6331Z" fill="white"/>
<path id="Vector_4" d="M71.0454 21.048L67.3608 29.9981H66.8574L63.8743 23.3844L60.9091 29.9981H60.4237L56.7031 21.048H58.1767L60.7111 27.5363L63.6222 20.8506H64.1436L67.0908 27.4823L69.5712 21.048H71.0454Z" fill="white"/>
<path id="Vector_5" d="M71.125 25.4153C71.125 22.8456 73.138 20.8506 75.7078 20.8506C78.2595 20.8506 80.2905 22.8636 80.2905 25.4153C80.2905 27.9491 78.2595 29.9801 75.6897 29.9801C73.138 29.9807 71.125 27.9497 71.125 25.4153ZM78.8715 25.4333C78.8715 23.5464 77.5059 22.1268 75.7083 22.1268C73.8934 22.1268 72.5452 23.5464 72.5452 25.4333C72.5452 27.3023 73.8928 28.7045 75.6904 28.7045C77.4879 28.7045 78.8715 27.2849 78.8715 25.4333Z" fill="white"/>
<path id="Vector_6" d="M86.4444 21.0495V22.2717H85.923C84.5034 22.2717 83.1733 23.1705 83.1733 24.8415V29.8016H81.7891V21.0495H83.0833V22.2897C83.73 21.4269 84.7548 20.9775 85.797 20.9775C86.085 20.9775 86.2644 21.0135 86.4444 21.0495Z" fill="white"/>
<path id="Vector_7" d="M87.3945 16.3223H88.7787V29.8011H87.3945V16.3223ZM94.7271 29.8011H92.9481L88.9221 24.8764L92.5701 21.0484H94.3851L90.5931 24.8944L94.7271 29.8011Z" fill="white"/>
</g>
<g id="Group_4">
<path id="Vector_8" d="M41.5323 5.04896V13.9451H39.2679V12.9029C38.6391 13.7117 37.6504 14.1611 36.4462 14.1611C33.9298 14.1611 32.1328 12.1841 32.1328 9.50631C32.1328 6.82854 33.9298 4.85156 36.4462 4.85156C37.6864 4.85156 38.6925 5.33696 39.3039 6.16375V5.04896H41.5323ZM39.1419 9.50631C39.1419 7.81673 38.0098 7.04394 36.8956 7.04394C35.6374 7.04394 34.5952 7.99673 34.5952 9.50631C34.5952 11.0159 35.6374 11.9507 36.8956 11.9507C38.0098 11.9507 39.1419 11.2139 39.1419 9.50631Z" fill="white"/>
<path id="Vector_9" d="M43.1569 1.39379L45.5826 0V13.9469H43.1562V1.39379H43.1569Z" fill="white"/>
<path id="Vector_10" d="M50.1689 3.80894V5.04913H52.1279V7.09811H50.1689V13.9458H47.7426V7.09811H46.4844V5.04913H47.7426V3.59354C47.7426 1.31117 49.1087 0.250977 51.1751 0.250977C51.7325 0.250977 52.1633 0.340976 52.5053 0.448375V2.47935C52.2359 2.44335 52.0199 2.42535 51.7865 2.42535C50.7083 2.42535 50.1689 2.78475 50.1689 3.80894Z" fill="white"/>
<path id="Vector_11" d="M61.5792 5.04896V13.9451H59.3148V12.9029C58.686 13.7117 57.6972 14.1611 56.493 14.1611C53.9767 14.1611 52.1797 12.1841 52.1797 9.50631C52.1797 6.82854 53.9767 4.85156 56.493 4.85156C57.7332 4.85156 58.7394 5.33696 59.3508 6.16375V5.04896H61.5792ZM59.1888 9.50631C59.1888 7.81673 58.0566 7.04394 56.9424 7.04394C55.6843 7.04394 54.6421 7.99673 54.6421 9.50631C54.6421 11.0159 55.6843 11.9507 56.9424 11.9507C58.0566 11.9507 59.1888 11.2139 59.1888 9.50631Z" fill="white"/>
<path id="Vector_12" d="M71.381 8.42813V13.9457H68.9727V8.75152C68.9727 7.72733 68.3079 7.02594 67.3191 7.02594C66.3303 7.02594 65.6295 7.72673 65.6295 8.75152V13.9457H63.2031V5.04896H65.4315V5.85775C66.0423 5.24696 66.9411 4.85156 68.0373 4.85156C70.1228 4.85156 71.381 6.28915 71.381 8.42813Z" fill="white"/>
</g>
</g>
<g id="Group 47477">
<g id="Group_5">
<path id="Vector_13" d="M8.95551 4.8344C7.56112 4.03101 6.16614 3.22942 4.77235 2.42543C4.64575 2.35223 4.54915 2.31443 4.47775 2.31743C4.40635 2.31443 4.30975 2.35223 4.18316 2.42543C2.78937 3.22942 1.39439 4.03101 0 4.8344V7.53197C0.679793 7.14078 3.37016 5.56099 4.47775 4.9172C5.58534 5.56099 8.27571 7.14078 8.95551 7.53197V4.8344Z" fill="url(#paint0_linear_1_1662)"/>
<path id="Vector_14" d="M8.95551 10.8256C7.56112 10.0222 6.16614 9.22063 4.77235 8.41664C4.64575 8.34344 4.54915 8.30564 4.47775 8.30864C4.40635 8.30564 4.30975 8.34344 4.18316 8.41664C2.78937 9.22063 1.39439 10.0222 0 10.8256V13.5232C0.679793 13.132 3.37016 11.5522 4.47775 10.9084C5.58534 11.5522 8.27571 13.132 8.95551 13.5232V10.8256Z" fill="url(#paint1_linear_1_1662)"/>
<path id="Vector_15" d="M8.95551 16.8188C7.56112 16.0154 6.16614 15.2138 4.77235 14.4098C4.64575 14.3366 4.54915 14.2988 4.47775 14.3018C4.40635 14.2988 4.30975 14.3366 4.18316 14.4098C2.78937 15.2138 1.39439 16.016 0 16.8188V19.5163C0.679793 19.1252 3.37016 17.5454 4.47775 16.9016C5.58534 17.5454 8.27571 19.1252 8.95551 19.5163V16.8188Z" fill="url(#paint2_linear_1_1662)"/>
<path id="Vector_16" d="M8.95551 22.8129C7.56112 22.0095 6.16614 21.2079 4.77235 20.4039C4.64575 20.3307 4.54915 20.2929 4.47775 20.2959C4.40635 20.2929 4.30975 20.3307 4.18316 20.4039C2.78937 21.2079 1.39439 22.0095 0 22.8129V25.5105C0.679793 25.1193 3.37016 23.5395 4.47775 22.8957C5.58534 23.5395 8.27571 25.1193 8.95551 25.5105V22.8129Z" fill="url(#paint3_linear_1_1662)"/>
</g>
<path id="Vector_17" d="M26.0535 14.7639C21.307 12.0315 16.5598 9.30098 11.8157 6.56501C11.4785 6.37061 11.3537 6.42581 11.3555 6.8338C11.3651 9.63097 11.3609 12.4275 11.3609 15.2247C11.3609 18.0129 11.3609 20.8017 11.3609 23.5898C11.3609 23.6576 11.3567 23.726 11.3627 23.7938C11.3795 23.9858 11.4833 24.0476 11.6549 23.9672C11.7083 23.942 11.7587 23.909 11.8103 23.8796C12.9881 23.2022 14.1659 22.526 15.3436 21.848C18.913 19.7937 22.4824 17.7399 26.0505 15.6843C26.5011 15.4251 26.5011 15.0213 26.0535 14.7639ZM13.7177 20.0871C13.7177 16.8393 13.7177 13.6197 13.7177 10.3588C16.537 11.9805 19.3354 13.5909 22.171 15.2223C19.3426 16.8501 16.543 18.4611 13.7177 20.0871Z" fill="url(#paint4_linear_1_1662)"/>
</g>
</g>
<defs>
<linearGradient id="paint0_linear_1_1662" x1="2.67321" y1="3.63895" x2="15.8151" y2="22.1654" gradientUnits="userSpaceOnUse">
<stop stop-color="#FF007E"/>
<stop offset="1" stop-color="#FF6625"/>
</linearGradient>
<linearGradient id="paint1_linear_1_1662" x1="-0.154882" y1="5.64355" x2="12.987" y2="24.17" gradientUnits="userSpaceOnUse">
<stop stop-color="#FF007E"/>
<stop offset="1" stop-color="#FF6625"/>
</linearGradient>
<linearGradient id="paint2_linear_1_1662" x1="-2.98298" y1="7.65011" x2="10.1589" y2="26.1765" gradientUnits="userSpaceOnUse">
<stop stop-color="#FF007E"/>
<stop offset="1" stop-color="#FF6625"/>
</linearGradient>
<linearGradient id="paint3_linear_1_1662" x1="-5.81107" y1="9.65705" x2="7.33083" y2="28.1835" gradientUnits="userSpaceOnUse">
<stop stop-color="#FF007E"/>
<stop offset="1" stop-color="#FF6625"/>
</linearGradient>
<linearGradient id="paint4_linear_1_1662" x1="5.97141" y1="1.29691" x2="19.1133" y2="19.8233" gradientUnits="userSpaceOnUse">
<stop stop-color="#FF007E"/>
<stop offset="1" stop-color="#FF6625"/>
</linearGradient>
</defs>
</svg>
