<svg width="71" height="30" viewBox="0 0 71 30" fill="none" xmlns="http://www.w3.org/2000/svg">
<g id="Group">
<g id="Group_2">
<path id="Vector" d="M0.552943 4.30904C1.38524 4.78196 2.80038 5.59372 3.63086 6.07027C3.64898 6.08537 3.66891 6.09986 3.69246 6.11315C4.02828 6.30401 4.36349 6.49668 4.69931 6.68935V22.5102L7.07056 21.2019V6.63741C7.07056 6.6362 7.07056 6.63499 7.07056 6.63378C7.07056 6.50936 7.07117 6.38494 7.07117 6.26052C7.07117 6.02074 7.07117 5.78156 7.07237 5.54178C7.07237 5.52607 7.07177 5.51097 7.07056 5.49648V5.49044C7.06029 5.37629 7.00895 5.30018 6.8954 5.23556C6.0607 4.76082 5.22961 4.28065 4.39732 3.80169C4.38041 3.78901 4.36229 3.77633 4.34175 3.76425C3.31618 3.18019 1.71079 2.25549 0.688236 1.66962C0.475633 1.54762 0.391075 1.59654 0.387451 1.84297V4.05235C0.395907 4.16409 0.439394 4.24442 0.552943 4.30904Z" fill="url(#paint0_linear_1_1706)"/>
<path id="Vector_2" d="M7.06573 25.12C7.06513 24.806 7.06513 23.9948 7.06513 23.3884C6.06372 23.9604 4.09532 25.0965 3.12955 25.6455C3.11626 25.6534 3.10358 25.6612 3.0921 25.6691C2.98037 25.7325 2.86923 25.7965 2.7581 25.8605V7.78079L0.387451 6.56738V29.27C0.387451 29.5189 0.654413 29.6759 0.871848 29.5557C2.45127 28.6823 6.13257 26.6348 6.85494 26.2259C6.99627 26.1462 7.05848 26.0538 7.06633 25.9022L7.06694 25.9457C7.06754 25.9324 7.07056 25.9209 7.07056 25.9064C7.06694 25.6588 7.06633 25.3677 7.06573 25.12Z" fill="url(#paint1_linear_1_1706)"/>
<path id="Vector_3" d="M24.3083 15.2569C19.5302 12.5064 14.7514 9.75765 9.97573 7.00347C9.63629 6.80778 9.51066 6.86334 9.51247 7.27405C9.52213 10.0898 9.51791 12.905 9.51791 15.7208C9.51791 18.5275 9.51791 21.3349 9.51791 24.1416C9.51791 24.2098 9.51368 24.2787 9.51972 24.3469C9.53663 24.5402 9.64112 24.6024 9.81386 24.5215C9.86761 24.4961 9.91835 24.4629 9.97029 24.4333C11.1559 23.7514 12.3415 23.0707 13.5272 22.3882C17.1203 20.3202 20.7134 18.2527 24.3053 16.1835C24.7589 15.9225 24.7583 15.5161 24.3083 15.2569ZM11.8904 20.6155C11.8904 17.3461 11.8904 14.1051 11.8904 10.8225C14.7285 12.455 17.5455 14.0761 20.3999 15.7184C17.5527 17.357 14.7345 18.9787 11.8904 20.6155Z" fill="url(#paint2_linear_1_1706)"/>
</g>
<g id="Group_3">
<g id="Group_4">
<path id="Vector_4" d="M39.9901 5.08348V14.0388H37.7107V12.9897C37.0777 13.8038 36.0823 14.2562 34.8701 14.2562C32.337 14.2562 30.5281 12.2661 30.5281 9.57049C30.5281 6.8749 32.337 4.88477 34.8701 4.88477C36.1186 4.88477 37.1315 5.37339 37.7469 6.20568V5.08348H39.9901ZM37.5838 9.57049C37.5838 7.86967 36.4441 7.09173 35.3225 7.09173C34.056 7.09173 33.0068 8.05086 33.0068 9.57049C33.0068 11.0901 34.056 12.0311 35.3225 12.0311C36.4441 12.0311 37.5838 11.2894 37.5838 9.57049Z" fill="white"/>
<path id="Vector_5" d="M41.6257 1.40306L44.0683 0V14.0397H41.6257V1.40306Z" fill="white"/>
<path id="Vector_6" d="M48.6863 3.8353V5.08374H50.6583V7.14635H48.6863V14.0396H46.2438V7.14635H44.9772V5.08374H46.2438V3.61847C46.2438 1.32091 47.6191 0.253662 49.6992 0.253662C50.2603 0.253662 50.694 0.34426 51.0382 0.452374V2.49687C50.7671 2.46063 50.5496 2.44251 50.3147 2.44251C49.2293 2.44251 48.6863 2.8043 48.6863 3.8353Z" fill="white"/>
<path id="Vector_7" d="M60.1698 5.08348V14.0388H57.8904V12.9897C57.2574 13.8038 56.262 14.2562 55.0498 14.2562C52.5167 14.2562 50.7078 12.2661 50.7078 9.57049C50.7078 6.8749 52.5167 4.88477 55.0498 4.88477C56.2983 4.88477 57.3111 5.37339 57.9266 6.20568V5.08348H60.1698ZM57.7635 9.57049C57.7635 7.86967 56.6238 7.09173 55.5022 7.09173C54.2356 7.09173 53.1865 8.05086 53.1865 9.57049C53.1865 11.0901 54.2356 12.0311 55.5022 12.0311C56.6238 12.0311 57.7635 11.2894 57.7635 9.57049Z" fill="white"/>
<path id="Vector_8" d="M70.0338 8.48513V14.0394H67.6094V8.81068C67.6094 7.77967 66.9402 7.07361 65.9449 7.07361C64.9495 7.07361 64.244 7.77907 64.244 8.81068V14.0394H61.8015V5.08348H64.0447V5.89765C64.6596 5.28279 65.5643 4.88477 66.6678 4.88477C68.7673 4.88477 70.0338 6.33192 70.0338 8.48513Z" fill="white"/>
</g>
<path id="Vector_9" d="M31.3601 16.4316H32.7535V30.0002H31.3601V16.4316Z" fill="white"/>
<path id="Vector_10" d="M34.4773 17.8244C34.4773 17.2633 34.9478 16.8115 35.5264 16.8115C36.0875 16.8115 36.5574 17.2639 36.5574 17.8244C36.5574 18.4036 36.0869 18.8373 35.5264 18.8373C34.9478 18.8373 34.4773 18.403 34.4773 17.8244ZM34.821 21.1892H36.2144V29.9996H34.821V21.1892Z" fill="white"/>
<path id="Vector_11" d="M45.5844 24.4641V30.0003H44.1916V24.6272C44.1916 23.2344 43.3593 22.2753 42.0028 22.2753C40.6462 22.2753 39.6871 23.2525 39.6871 24.6272V30.0003H38.2937V21.1899H39.5965V22.1309C40.2295 21.4255 41.1705 20.9912 42.3102 20.9912C44.3903 20.9906 45.5844 22.4202 45.5844 24.4641Z" fill="white"/>
<path id="Vector_12" d="M47.5943 16.4314H48.9871V30H47.5943V16.4314ZM54.9756 30H53.1842L49.1315 25.0424L52.8043 21.189H54.6314L50.8142 25.0606L54.9756 30Z" fill="white"/>
</g>
</g>
<defs>
<linearGradient id="paint0_linear_1_1706" x1="-1.56429" y1="2.28853" x2="10.2661" y2="20.8335" gradientUnits="userSpaceOnUse">
<stop stop-color="#7362FF"/>
<stop offset="0.1806" stop-color="#6472FF"/>
<stop offset="0.536" stop-color="#3C9DFF"/>
<stop offset="1" stop-color="#00DEFF"/>
</linearGradient>
<linearGradient id="paint1_linear_1_1706" x1="-6.55984" y1="5.82464" x2="5.31658" y2="24.4417" gradientUnits="userSpaceOnUse">
<stop stop-color="#7362FF"/>
<stop offset="0.1806" stop-color="#6472FF"/>
<stop offset="0.536" stop-color="#3C9DFF"/>
<stop offset="1" stop-color="#00DEFF"/>
</linearGradient>
<linearGradient id="paint2_linear_1_1706" x1="3.97438" y1="-0.532644" x2="15.7049" y2="17.8557" gradientUnits="userSpaceOnUse">
<stop stop-color="#7362FF"/>
<stop offset="0.1806" stop-color="#6472FF"/>
<stop offset="0.536" stop-color="#3C9DFF"/>
<stop offset="1" stop-color="#00DEFF"/>
</linearGradient>
</defs>
</svg>
